<mxfile host="app.diagrams.net" modified="2024-02-02T09:33:41.214Z" agent="Mozilla/5.0 (Windows NT 10.0; Win64; x64) AppleWebKit/537.36 (KHTML, like Gecko) Chrome/121.0.0.0 Safari/537.36 Edg/121.0.0.0" version="23.0.2" etag="X0CQg9FFy-LKI93aP13h" type="github">
  <diagram name="Page-1" id="uutusODBPlVuzWfhoh6w">
    <mxGraphModel>
      <root>
        <mxCell id="0" />
        <mxCell id="1" parent="0" />
      </root>
    </mxGraphModel>
  </diagram>
</mxfile>
